<svg width="292" height="33" viewBox="0 0 292 33" fill="none" xmlns="http://www.w3.org/2000/svg">
<path d="M20.272 2.144C20.752 0.735999 21.536 0.0319996 22.624 0.0319996C23.36 0.0319996 23.856 0.591999 24.112 1.712C24.272 7.536 24.352 13.232 24.352 18.8C24.352 24.624 24.32 28.176 24.256 29.456C24.192 30.448 23.984 31.136 23.632 31.52C23.28 31.872 22.64 32.048 21.712 32.048C20.88 32.048 20.464 31.536 20.464 30.512V19.664C20.464 18.544 20.432 16.736 20.368 14.24L20.272 10.736C19.152 12.624 17.712 14.16 15.952 15.344C14.192 16.528 12.192 17.12 9.952 17.12C7.712 17.12 5.856 16.208 4.384 14.384C4.32 16.944 4.288 19.248 4.288 21.296L4.336 29.744C4.336 30.48 4.08 31.056 3.568 31.472C3.088 31.856 2.48 32.048 1.744 32.048C0.88 32.048 0.448 31.52 0.448 30.464C0.48 28.544 0.496 23.984 0.496 16.784V3.152C0.496 2.576 0.672 2.048 1.024 1.568C1.408 1.056 1.84 0.799998 2.32 0.799998C2.864 0.799998 3.328 0.943998 3.712 1.232C4.128 1.52 4.352 1.92 4.384 2.432C4.512 5.856 5.072 8.464 6.064 10.256C7.056 12.048 8.288 12.944 9.76 12.944C11.104 12.944 12.304 12.72 13.36 12.272C14.416 11.792 15.264 11.248 15.904 10.64C16.576 10 17.2 9.136 17.776 8.048C18.608 6.544 19.44 4.576 20.272 2.144ZM33.4589 23.408C32.5309 26.8 31.9869 29.232 31.8269 30.704C31.6989 31.504 31.1229 31.904 30.0989 31.904C29.1069 31.904 28.6109 31.488 28.6109 30.656C28.6109 28.736 29.5389 24.896 31.3949 19.136C32.1629 16.608 33.0909 14.4 34.1789 12.512C35.1709 10.752 36.1629 9.872 37.1549 9.872C37.6669 9.872 38.1149 10.176 38.4989 10.784C38.8189 11.296 39.5069 12.688 40.5629 14.96C41.6189 17.264 42.4669 19.552 43.1069 21.824C43.7149 23.968 44.4509 26.912 45.3149 30.656C45.3149 31.04 45.1709 31.36 44.8829 31.616C44.5949 31.872 44.2429 32 43.8269 32C42.7709 32 42.1309 31.552 41.9069 30.656L40.2269 24.08C37.4429 24.08 35.1869 23.856 33.4589 23.408ZM39.4109 20.864C38.7389 18.432 37.9389 16.24 37.0109 14.288C35.9549 16.048 35.0909 18.048 34.4189 20.288C35.8269 20.672 37.4909 20.864 39.4109 20.864ZM66.8875 10.88C66.8875 12.192 65.3835 12.848 62.3755 12.848L59.2075 12.752L59.1115 24.128L59.1595 27.728C59.1915 28.368 59.2075 29.264 59.2075 30.416C59.2075 30.864 58.9995 31.248 58.5835 31.568C58.1995 31.856 57.7675 32 57.2875 32C56.4555 32 56.0395 31.552 56.0395 30.656C55.9435 27.488 55.8955 24.432 55.8955 21.488C55.8955 17.968 55.9915 15.104 56.1835 12.896C54.0395 13.056 52.0875 13.136 50.3275 13.136C49.3355 13.136 48.8395 12.72 48.8395 11.888C48.8395 11.504 49.0155 11.12 49.3675 10.736C49.7515 10.352 50.1675 10.144 50.6155 10.112L65.5915 9.632C66.4555 9.824 66.8875 10.24 66.8875 10.88ZM84.1045 10.448C84.3285 10.864 84.4245 11.312 84.3925 11.792V22.208L84.3445 29.312C84.3445 31.104 83.7685 32 82.6165 32C81.5285 32 81.0005 31.536 81.0325 30.608C81.1605 29.104 81.2245 26.4 81.2245 22.496C80.5845 22.56 79.9125 22.592 79.2085 22.592C77.8005 22.592 75.8645 22.464 73.4005 22.208V23.216C73.4005 23.632 73.5285 26.064 73.7845 30.512C73.8165 30.992 73.6405 31.36 73.2565 31.616C72.8725 31.872 72.4565 32 72.0085 32C71.6245 32 71.3045 31.888 71.0485 31.664C70.7925 31.408 70.6485 31.12 70.6165 30.8C70.2645 27.472 70.0885 24.592 70.0885 22.16L70.1365 19.76L70.3285 11.744C70.3605 11.36 70.5685 11.04 70.9525 10.784C71.3365 10.496 71.7685 10.352 72.2485 10.352C73.0805 10.352 73.4965 10.704 73.4965 11.408L73.4005 18.944C75.2885 19.264 76.7925 19.408 77.9125 19.376C79.0325 19.344 79.6405 19.328 79.7365 19.328H81.2245C81.1285 17.536 81.0805 14.88 81.0805 11.36C81.0805 10.912 81.2885 10.544 81.7045 10.256C82.1205 9.968 82.5845 9.824 83.0965 9.824C83.5445 9.824 83.8805 10.032 84.1045 10.448ZM97.1549 21.248L92.3549 21.2L92.4509 27.488C92.4509 28.352 92.4349 28.8 92.4029 28.832L100.707 28.688C101.635 28.784 102.099 29.184 102.099 29.888C102.099 31.232 101.475 31.904 100.227 31.904L90.8189 32C90.0189 32 89.5229 31.696 89.3309 31.088C89.1389 30.48 89.0429 29.664 89.0429 28.64V20.672C88.6269 20.448 88.4189 20.096 88.4189 19.616C88.4189 19.2 88.5949 18.816 88.9469 18.464C88.8509 15.968 88.8029 13.696 88.8029 11.648C88.8029 10.464 89.5229 9.856 90.9629 9.824H92.3069L100.707 9.968H100.755C101.779 10.128 102.291 10.608 102.291 11.408C102.291 12.016 102.099 12.448 101.715 12.704C100.883 13.152 98.8829 13.376 95.7149 13.376C94.5629 13.376 93.3789 13.328 92.1629 13.232C92.1629 16.24 92.1789 17.856 92.2109 18.08C93.0429 18.112 95.4909 18.128 99.5549 18.128C100.547 18.256 101.043 18.704 101.043 19.472C101.043 19.856 100.883 20.224 100.563 20.576C100.243 20.928 99.8909 21.136 99.5069 21.2C99.3469 21.2 99.0909 21.216 98.7389 21.248C98.3869 21.248 97.8589 21.248 97.1549 21.248ZM120.957 19.856C120.957 16.304 120.765 13.616 120.381 11.792L120.333 11.36C120.333 10.944 120.525 10.576 120.909 10.256C121.293 9.968 121.725 9.824 122.205 9.824C122.653 9.824 123.021 9.936 123.309 10.16C123.629 10.384 123.805 10.672 123.837 11.024C124.157 14.128 124.317 16.96 124.317 19.52C124.317 20.96 124.269 22.112 124.173 22.976C123.949 26.08 123.165 28.368 121.821 29.84C120.509 31.28 118.477 32 115.725 32C113.773 32 112.109 31.44 110.733 30.32C109.389 29.168 108.429 27.616 107.853 25.664C107.021 22.784 106.605 19.616 106.605 16.16C106.605 14.816 106.685 13.296 106.845 11.6C106.877 11.184 107.117 10.832 107.565 10.544C108.013 10.224 108.445 10.064 108.861 10.064C109.277 10.064 109.613 10.192 109.869 10.448C110.125 10.704 110.237 11.04 110.205 11.456C110.045 12.96 109.965 14.592 109.965 16.352C109.965 17.184 109.997 18.24 110.061 19.52C110.253 22.112 110.845 24.304 111.837 26.096C112.861 27.888 114.157 28.784 115.725 28.784C119.213 28.784 120.957 25.808 120.957 19.856ZM141.271 10.64C142.455 11.184 143.047 11.92 143.047 12.848C143.047 13.264 142.903 13.616 142.615 13.904C142.359 14.16 142.087 14.288 141.799 14.288C141.287 14.288 140.471 14.032 139.351 13.52C138.295 13.008 137.271 12.752 136.279 12.752C135.351 12.752 134.391 13.008 133.399 13.52C132.407 14 131.911 14.608 131.911 15.344C131.911 16.08 132.519 16.736 133.735 17.312C134.855 17.856 136.295 18.352 138.055 18.8C139.783 19.248 140.887 19.664 141.367 20.048C141.847 20.368 142.247 20.688 142.567 21.008C142.855 21.264 143.111 21.76 143.335 22.496C143.591 23.2 143.719 24.048 143.719 25.04C143.719 27.376 142.951 29.12 141.415 30.272C139.911 31.392 138.103 31.952 135.991 31.952C133.911 31.952 132.119 31.616 130.615 30.944C129.111 30.272 128.359 29.44 128.359 28.448C128.359 28 128.519 27.6 128.839 27.248C129.159 26.864 129.527 26.672 129.943 26.672C130.039 26.672 130.183 26.704 130.375 26.768C133.351 27.952 135.239 28.544 136.039 28.544C137.383 28.544 138.423 28.208 139.159 27.536C139.927 26.864 140.311 25.984 140.311 24.896C140.311 24.032 140.039 23.344 139.495 22.832C138.951 22.32 138.279 21.936 137.479 21.68C136.711 21.392 135.655 21.104 134.311 20.816L132.535 20.384C131.319 20.032 130.327 19.472 129.559 18.704C128.727 17.872 128.311 16.72 128.311 15.248C128.311 13.744 129.079 12.464 130.615 11.408C132.119 10.32 133.991 9.776 136.231 9.776C138.407 9.776 140.087 10.064 141.271 10.64ZM178.944 2.144C179.424 0.735999 180.208 0.0319996 181.296 0.0319996C182.032 0.0319996 182.528 0.591999 182.784 1.712C182.944 7.536 183.024 13.232 183.024 18.8C183.024 24.624 182.992 28.176 182.928 29.456C182.864 30.448 182.656 31.136 182.304 31.52C181.952 31.872 181.312 32.048 180.384 32.048C179.552 32.048 179.136 31.536 179.136 30.512V19.664C179.136 18.544 179.104 16.736 179.04 14.24L178.944 10.736C177.824 12.624 176.384 14.16 174.624 15.344C172.864 16.528 170.864 17.12 168.624 17.12C166.384 17.12 164.528 16.208 163.056 14.384C162.992 16.944 162.96 19.248 162.96 21.296L163.008 29.744C163.008 30.48 162.752 31.056 162.24 31.472C161.76 31.856 161.152 32.048 160.416 32.048C159.552 32.048 159.12 31.52 159.12 30.464C159.152 28.544 159.168 23.984 159.168 16.784V3.152C159.168 2.576 159.344 2.048 159.696 1.568C160.08 1.056 160.512 0.799998 160.992 0.799998C161.536 0.799998 162 0.943998 162.384 1.232C162.8 1.52 163.024 1.92 163.056 2.432C163.184 5.856 163.744 8.464 164.736 10.256C165.728 12.048 166.96 12.944 168.432 12.944C169.776 12.944 170.976 12.72 172.032 12.272C173.088 11.792 173.936 11.248 174.576 10.64C175.248 10 175.872 9.136 176.448 8.048C177.28 6.544 178.112 4.576 178.944 2.144ZM192.131 23.408C191.203 26.8 190.659 29.232 190.499 30.704C190.371 31.504 189.795 31.904 188.771 31.904C187.779 31.904 187.283 31.488 187.283 30.656C187.283 28.736 188.211 24.896 190.067 19.136C190.835 16.608 191.763 14.4 192.851 12.512C193.843 10.752 194.835 9.872 195.827 9.872C196.339 9.872 196.787 10.176 197.171 10.784C197.491 11.296 198.179 12.688 199.235 14.96C200.291 17.264 201.139 19.552 201.779 21.824C202.387 23.968 203.123 26.912 203.987 30.656C203.987 31.04 203.843 31.36 203.555 31.616C203.267 31.872 202.915 32 202.499 32C201.443 32 200.803 31.552 200.579 30.656L198.899 24.08C196.115 24.08 193.859 23.856 192.131 23.408ZM198.083 20.864C197.411 18.432 196.611 16.24 195.683 14.288C194.627 16.048 193.763 18.048 193.091 20.288C194.499 20.672 196.163 20.864 198.083 20.864ZM211.687 24.464C211.719 25.392 211.783 27.296 211.879 30.176V30.224C211.879 30.704 211.655 31.12 211.207 31.472C210.759 31.824 210.263 32 209.719 32C209.015 32 208.663 31.68 208.663 31.04C208.535 29.728 208.471 23.76 208.471 13.136C208.471 12.112 209.079 11.312 210.295 10.736C211.511 10.16 213.159 9.872 215.239 9.872C217.287 9.872 219.095 10.384 220.663 11.408C222.231 12.4 223.015 13.632 223.015 15.104C223.015 15.776 222.711 16.544 222.103 17.408C221.527 18.272 220.871 18.976 220.135 19.52C219.495 19.968 218.519 20.56 217.207 21.296C215.895 22.032 215.111 22.416 214.855 22.448C216.807 23.696 218.599 25.088 220.231 26.624C221.799 28.16 222.583 29.424 222.583 30.416C222.583 31.12 222.199 31.6 221.431 31.856C221.143 31.952 220.935 32 220.807 32C220.327 32 219.799 31.648 219.223 30.944C218.807 30.4 217.783 29.408 216.151 27.968C214.487 26.528 212.999 25.36 211.687 24.464ZM211.735 13.568C211.703 14.592 211.687 16.8 211.687 20.192C212.711 20.192 214.295 19.68 216.439 18.656C218.551 17.6 219.655 16.624 219.751 15.728C219.751 14.928 219.287 14.304 218.359 13.856C217.463 13.376 216.439 13.136 215.287 13.136C214.071 13.136 212.887 13.28 211.735 13.568ZM244.778 10.88C244.778 12.192 243.274 12.848 240.266 12.848L237.098 12.752L237.002 24.128L237.05 27.728C237.082 28.368 237.098 29.264 237.098 30.416C237.098 30.864 236.89 31.248 236.474 31.568C236.09 31.856 235.658 32 235.178 32C234.346 32 233.93 31.552 233.93 30.656C233.834 27.488 233.786 24.432 233.786 21.488C233.786 17.968 233.882 15.104 234.074 12.896C231.93 13.056 229.978 13.136 228.218 13.136C227.226 13.136 226.73 12.72 226.73 11.888C226.73 11.504 226.906 11.12 227.258 10.736C227.642 10.352 228.058 10.144 228.506 10.112L243.482 9.632C244.346 9.824 244.778 10.24 244.778 10.88ZM250.523 31.52C250.075 31.84 249.611 32 249.131 32C248.235 32 247.787 31.616 247.787 30.848L247.979 11.312C247.979 10.864 248.123 10.512 248.411 10.256C248.731 9.968 249.131 9.824 249.611 9.824C250.091 9.824 250.491 9.936 250.811 10.16C251.163 10.416 251.355 10.8 251.387 11.312C251.419 11.664 251.435 12.832 251.435 14.816C251.435 23.552 251.371 28.752 251.243 30.416C251.211 30.8 250.971 31.168 250.523 31.52ZM266.574 28.448C264.142 23.84 261.598 20.032 258.942 17.024L258.414 28.688L258.366 29.744C258.366 30.288 258.35 30.624 258.318 30.752C258.19 31.616 257.63 32.048 256.638 32.048C256.254 32.048 255.902 31.92 255.582 31.664C255.294 31.376 255.134 31.024 255.102 30.608L255.486 17.168V15.584C255.486 14.4 255.566 13.472 255.726 12.8C255.982 11.936 256.558 11.504 257.454 11.504C257.934 11.504 258.51 11.824 259.182 12.464C259.854 13.072 260.814 14.176 262.062 15.776C265.07 19.488 267.374 23.024 268.974 26.384C268.942 22.448 268.83 18.992 268.638 16.016L268.398 12.08V11.696C268.654 10.48 269.31 9.872 270.366 9.872C270.782 9.872 271.166 10.064 271.518 10.448C271.87 10.8 272.046 11.248 272.046 11.792L272.286 29.648C272.286 31.312 271.614 32.144 270.27 32.144C269.47 32.144 268.846 31.872 268.398 31.328C267.854 30.656 267.438 30.048 267.15 29.504C266.862 28.96 266.67 28.608 266.574 28.448ZM289.443 10.64C290.627 11.184 291.219 11.92 291.219 12.848C291.219 13.264 291.075 13.616 290.787 13.904C290.531 14.16 290.259 14.288 289.971 14.288C289.459 14.288 288.643 14.032 287.523 13.52C286.467 13.008 285.443 12.752 284.451 12.752C283.523 12.752 282.563 13.008 281.571 13.52C280.579 14 280.083 14.608 280.083 15.344C280.083 16.08 280.691 16.736 281.907 17.312C283.027 17.856 284.467 18.352 286.227 18.8C287.955 19.248 289.059 19.664 289.539 20.048C290.019 20.368 290.419 20.688 290.739 21.008C291.027 21.264 291.283 21.76 291.507 22.496C291.763 23.2 291.891 24.048 291.891 25.04C291.891 27.376 291.123 29.12 289.587 30.272C288.083 31.392 286.275 31.952 284.163 31.952C282.083 31.952 280.291 31.616 278.787 30.944C277.283 30.272 276.531 29.44 276.531 28.448C276.531 28 276.691 27.6 277.011 27.248C277.331 26.864 277.699 26.672 278.115 26.672C278.211 26.672 278.355 26.704 278.547 26.768C281.523 27.952 283.411 28.544 284.211 28.544C285.555 28.544 286.595 28.208 287.331 27.536C288.099 26.864 288.483 25.984 288.483 24.896C288.483 24.032 288.211 23.344 287.667 22.832C287.123 22.32 286.451 21.936 285.651 21.68C284.883 21.392 283.827 21.104 282.483 20.816L280.707 20.384C279.491 20.032 278.499 19.472 277.73 18.704C276.899 17.872 276.483 16.72 276.483 15.248C276.483 13.744 277.251 12.464 278.787 11.408C280.291 10.32 282.163 9.776 284.403 9.776C286.579 9.776 288.259 10.064 289.443 10.64Z" fill="#141414"/>
</svg>
